<?xml version="1.0" encoding="UTF-8" standalone="no"?>
<svg
   xmlns:dc="http://purl.org/dc/elements/1.1/"
   xmlns:cc="http://creativecommons.org/ns#"
   xmlns:rdf="http://www.w3.org/1999/02/22-rdf-syntax-ns#"
   xmlns:svg="http://www.w3.org/2000/svg"
   xmlns="http://www.w3.org/2000/svg"
   xmlns:sodipodi="http://sodipodi.sourceforge.net/DTD/sodipodi-0.dtd"
   xmlns:inkscape="http://www.inkscape.org/namespaces/inkscape"
   version="1.1"
   id="svg1023"
   width="170"
   height="30"
   viewBox="0 0 170 30"
   sodipodi:docname="logo-av.svg"
   inkscape:version="1.0.1 (3bc2e813f5, 2020-09-07)">
  <metadata
     id="metadata1029">
    <rdf:RDF>
      <cc:Work
         rdf:about="">
        <dc:format>image/svg+xml</dc:format>
        <dc:type
           rdf:resource="http://purl.org/dc/dcmitype/StillImage" />
        <dc:title></dc:title>
      </cc:Work>
    </rdf:RDF>
  </metadata>
  <defs
     id="defs1027">
    <rect
       x="417"
       y="285"
       width="187"
       height="76"
       id="rect1683" />
    <rect
       x="436"
       y="354"
       width="170"
       height="42"
       id="rect1673" />
    <filter
       inkscape:collect="always"
       style="color-interpolation-filters:sRGB"
       id="filter1644"
       x="-1"
       width="1"
       y="-2"
       height="1">
      <feGaussianBlur
         inkscape:collect="always"
         stdDeviation="0,00021713044"
         id="feGaussianBlur1646" />
    </filter>
  </defs>
  <sodipodi:namedview
     pagecolor="#ffffff"
     bordercolor="#666666"
     borderopacity="1"
     objecttolerance="10"
     gridtolerance="10"
     guidetolerance="10"
     inkscape:pageopacity="0"
     inkscape:pageshadow="2"
     inkscape:window-width="1282"
     inkscape:window-height="644"
     id="namedview1025"
     showgrid="false"
     inkscape:zoom="2"
     inkscape:cx="123,10293"
     inkscape:cy="79,501458"
     inkscape:window-x="0"
     inkscape:window-y="0"
     inkscape:window-maximized="0"
     inkscape:current-layer="g1031"
     inkscape:document-rotation="0" />
  <g
     inkscape:groupmode="layer"
     inkscape:label="Image"
     id="g1031">
    <path
       style="fill:none;fill-opacity:1;stroke:#000000;stroke-linecap:butt;stroke-linejoin:miter;stroke-miterlimit:4;stroke-dasharray:none;stroke-opacity:1"
       d="m 6.7057576,15.855724 c -0.7863134,2.348271 -0.7724206,4.959919 -0.9505052,7.50839 l 0.080972,5.005585 0.3907638,2.335942 c 0.498721,0.430632 0.9974432,0.422155 1.4961654,0 l 0.2499473,-2.360267 -0.06486,-5.347347 C 7.7586081,19.50111 7.2845508,17.445737 6.7057622,15.855724 Z"
       id="path1035"
       sodipodi:nodetypes="cccccccc" />
    <path
       style="opacity:0;fill:none;stroke:#000000;stroke-width:1px;stroke-linecap:butt;stroke-linejoin:miter;stroke-opacity:1;filter:url(#filter1644)"
       d="m 22.207756,653.62363 c 9.71129,-29.37159 9.5397,-62.03747 11.73913,-93.91301 l -1,-62.60871 -4.82609,-29.21739 c -6.15942,-5.3862 -12.31884,-5.28025 -18.4782608,0 l -3.08696,29.52174 0.80105,66.88316 c 1.84805,43.73857 7.7028508,69.4467 14.8511308,89.33421 z"
       id="path1035-4"
       sodipodi:nodetypes="cccccccc" />
    <path
       style="fill:none;fill-opacity:1;stroke:#000000;stroke-linecap:butt;stroke-linejoin:miter;stroke-miterlimit:4;stroke-dasharray:none;stroke-opacity:1"
       d="M 6.7057576,15.855724 C 7.4920709,13.507453 7.4781781,10.895804 7.6562627,8.347337 L 7.5752907,3.3417516 7.3300473,1.0058094 c -0.4987222,-0.4306321 -1.1429636,-0.4221552 -1.641687,0 L 5.438413,3.3660765 5.5032725,8.713424 c 0.1496333,3.496913 0.6236906,5.552286 1.2024804,7.1423 z"
       id="path1035-2"
       sodipodi:nodetypes="cccccccc" />
    <path
       style="fill:none;stroke:#000000;stroke-linecap:butt;stroke-linejoin:miter;stroke-miterlimit:4;stroke-dasharray:none;stroke-opacity:1"
       d="m 7.6997524,15.918926 -0.1455191,-2.847004 0.8731196,-0.948993 2.3283171,-1.107165 6.967138,-1.042913 7.775321,-0.688184 3.201437,-0.474491 1.018639,1.897984 3.703019,0.316343 2.619359,-0.158172 0.873119,-1.581664 0.873118,0.632674 3.821209,0.632659 8.105652,1.766268 5.093197,1.581667 5.049473,1.82657 -7.411063,3.138831 -7.483069,1.958454 -13.316496,2.17525 -8.249341,0.316343 L 17.306699,22.610754 13.682402,22.202283 9.4623252,21.41145 7.7160873,20.304285 Z"
       id="path1663" />
    <path
       style="fill:none;stroke:#000000;stroke-linecap:butt;stroke-linejoin:miter;stroke-miterlimit:4;stroke-dasharray:none;stroke-opacity:1"
       d="m 46.544288,11.402371 0.29104,-1.739835 1.746236,-0.948994 2.910399,-1.1071761 5.863078,-2.400131 1.018641,0.1581595 0.873118,1.1071648 0.609551,9.2529458 -0.57087,8.121019 -1.164158,0.949005 -5.820796,-1.107165 -0.43656,-1.107177 -0.01334,-3.241647 c 3.203321,-1.417337 5.329799,-2.396873 8.005728,-3.614035 -6.136338,-2.093561 -6.81244,-2.582449 -13.312064,-4.322134 z"
       id="path1665"
       sodipodi:nodetypes="ccccccccccccccc" />
    <text
       xml:space="preserve"
       id="text1671"
       style="font-style:normal;font-weight:normal;font-size:40px;font-family:sans-serif;white-space:pre;shape-inside:url(#rect1673);fill:#000000;fill-opacity:1;stroke:none;"><tspan
         style="visibility:hidden"
         x="436"
         y="431,39062"><tspan
           dx="0 27,929688 24,472656 16,445312 25,449219 25,449219 25,449219">Cor1440</tspan></tspan></text>
    <text
       xml:space="preserve"
       style="font-style:normal;font-weight:normal;font-size:40px;font-family:sans-serif;fill:#000000;fill-opacity:1;stroke:none"
       x="421 80850"
       y="272 73709"
       id="text1679"><tspan
         sodipodi:role="line"
         id="tspan1677"
         x="421"
         y="272" /></text>
    <text
       xml:space="preserve"
       id="text1681"
       style="font-style:normal;font-weight:normal;font-size:40px;font-family:sans-serif;white-space:pre;shape-inside:url(#rect1683);fill:#000000;fill-opacity:1;stroke:none;"
       transform="matrix(0.30198282,0,0,0.4531818,-52.622878,-124.49187)"><tspan
         x="417"
         y="321,03018"><tspan
           style="font-style:normal;font-variant:normal;font-weight:bold;font-stretch:normal;font-size:40px;font-family:Arimo;-inkscape-font-specification:'Arimo, Bold';font-variant-ligatures:normal;font-variant-caps:normal;font-variant-numeric:normal;font-variant-east-asian:normal">Cor1440</tspan></tspan></text>
  </g>
</svg>
