<svg xmlns="http://www.w3.org/2000/svg" xlink="http://www.w3.org/1999/xlink" width="0" height="0" style="display:none;"><symbol viewBox="0 0 24 24" id="briefcase-4-fill"><path fill="none" d="M0 0h24v24H0z"/><path d="M9 13v3h6v-3h7v7a1 1 0 0 1-1 1H3a1 1 0 0 1-1-1v-7h7zm2-2h2v3h-2v-3zM7 5V2a1 1 0 0 1 1-1h8a1 1 0 0 1 1 1v3h4a1 1 0 0 1 1 1v5h-7V9H9v2H2V6a1 1 0 0 1 1-1h4zm2-2v2h6V3H9z"/></symbol><symbol viewBox="0 0 24 24" id="riding-fill"><path fill="none" d="M0 0h24v24H0z"/><path d="M5.5 21a4.5 4.5 0 1 1 0-9 4.5 4.5 0 0 1 0 9zm0-3a1.5 1.5 0 1 0 0-3 1.5 1.5 0 0 0 0 3zm13 3a4.5 4.5 0 1 1 0-9 4.5 4.5 0 0 1 0 9zm0-3a1.5 1.5 0 1 0 0-3 1.5 1.5 0 0 0 0 3zm-6.969-8.203L13 12v6h-2v-5l-2.719-2.266A2 2 0 0 1 8 7.671l2.828-2.828a2 2 0 0 1 2.829 0l1.414 1.414a6.969 6.969 0 0 0 3.917 1.975l-.01 2.015a8.962 8.962 0 0 1-5.321-2.575L11.53 9.797zM16 5a2 2 0 1 1 0-4 2 2 0 0 1 0 4z"/></symbol><symbol viewBox="0 0 24 24" id="book-open-fill"><path fill="none" d="M0 0h24v24H0z"/><path d="M21 21h-8V6a3 3 0 0 1 3-3h5a1 1 0 0 1 1 1v16a1 1 0 0 1-1 1zm-10 0H3a1 1 0 0 1-1-1V4a1 1 0 0 1 1-1h5a3 3 0 0 1 3 3v15zm0 0h2v2h-2v-2z"/></symbol><symbol viewBox="0 0 24 24" id="settings-4-fill"><path fill="none" d="M0 0h24v24H0z"/><path d="M5.334 4.545a9.99 9.99 0 0 1 3.542-2.048A3.993 3.993 0 0 0 12 3.999a3.993 3.993 0 0 0 3.124-1.502 9.99 9.99 0 0 1 3.542 2.048 3.993 3.993 0 0 0 .262 3.454 3.993 3.993 0 0 0 2.863 1.955 10.043 10.043 0 0 1 0 4.09c-1.16.178-2.23.86-2.863 1.955a3.993 3.993 0 0 0-.262 3.455 9.99 9.99 0 0 1-3.542 2.047A3.993 3.993 0 0 0 12 20a3.993 3.993 0 0 0-3.124 1.502 9.99 9.99 0 0 1-3.542-2.047 3.993 3.993 0 0 0-.262-3.455 3.993 3.993 0 0 0-2.863-1.954 10.043 10.043 0 0 1 0-4.091 3.993 3.993 0 0 0 2.863-1.955 3.993 3.993 0 0 0 .262-3.454zM13.5 14.597a3 3 0 1 0-3-5.196 3 3 0 0 0 3 5.196z"/></symbol><symbol viewBox="0 0 24 24" id="swap-box-fill"><path fill="none" d="M0 0h24v24H0z"/><path d="M3 3h18a1 1 0 0 1 1 1v16a1 1 0 0 1-1 1H3a1 1 0 0 1-1-1V4a1 1 0 0 1 1-1zm12 4v2h-4v2h4v2l3.5-3L15 7zM9 17v-2h4v-2H9v-2l-3.5 3L9 17z"/></symbol></svg>